<svg xmlns="http://www.w3.org/2000/svg" viewBox="0 0 114.86 114.86" fill="none">
  <g stroke="currentColor" stroke-width="1.6" stroke-linejoin="round">
    <polygon fill="#b86cf9" points="86.85 27.97 86.89 43.89 71.15 43.84 56.73 27.97 27.95 27.97 27.76 1.03 58.44 1 86.89 27.97 86.85 27.97"></polygon>
    <polygon fill="#b86cf9" points="113.86 58.46 86.94 86.79 86.94 87.06 71.84 87.17 71.82 71.42 86.85 56.91 86.85 28.01 113.83 27.83 113.86 58.46"></polygon>
    <polygon fill="#b86cf9" points="86.76 86.88 57.23 86.88 43.09 71.99 27.75 72 27.86 86.88 27.86 86.93 27.9 86.97 56.27 113.86 86.95 113.83 86.76 86.88"></polygon>
    <polygon fill="#b86cf9" points="28.02 57.23 28.13 86.84 1.15 87.13 1 56.49 27.77 28.12 27.87 28.01 27.91 28.01 42.49 27.91 42.5 43.25 28.02 57.23"></polygon>
  </g>
</svg>